# xmcd
#
# Track frame offsets:
#	150
#	24512
#	38530
#	66077
#	87615
#	127942
#	144135
#	162662
#	184297
#	195480
#	207642
#	218517
#	238597
#
# Disc length: 3613 seconds
#
# Revision: 0
# Processed by: cddbd v1.4PL0 Copyright (c) Steve Scherf et al.
# Submitted via: dBpowerAMP V4.0
#
DISCID=b50e1b0d
DTITLE=Various Artist - Blues Guitar Heaven
DYEAR=1900
DGENRE=Blues
TTITLE0=Otis Rush-I Can't Quit You Baby-Live
TTITLE1=Eric Clapton-Draggin My Tail- Live
TTITLE2=Muddy Waters-County Jail-Live
TTITLE3=T-Bone Walker-Stormy Monday Blues-Live
TTITLE4=Buddy Guy-Ice Around My Heart-Live
TTITLE5=Mike Bloomfield-WDIA-Live
TTITLE6=Johnny Shines-I Do Believe-Live
TTITLE7=Junior Wells and Buddy Guy-Early in the Morning-Live
TTITLE8=Eric Clapton-Snake Drive-Live
TTITLE9=Lonnie Johnson-Slow&Easy-Live
TTITLE10=John Lee Hooker-Dimples-Live
TTITLE11=Jimmy Johnson-Strange How I Miss You-Live
TTITLE12=Barry Levenson-Cobra Days/Blue Tears-Live
EXTD=
EXTT0=
EXTT1=
EXTT2=
EXTT3=
EXTT4=
EXTT5=
EXTT6=
EXTT7=
EXTT8=
EXTT9=
EXTT10=
EXTT11=
EXTT12=
PLAYORDER=
